<?xml version="1.0" encoding="UTF-8"?>
<svg id="Layer_2" data-name="Layer 2" xmlns="http://www.w3.org/2000/svg" viewBox="0 0 304.85 214.48">
  <defs>
    <style>
      .cls-1 {
        fill: #fff;
        stroke-width: 0px;
      }
    </style>
  </defs>
  <g id="Layer_1-2" data-name="Layer 1">
    <path class="cls-1" d="M0,212.18c6.14-10.03,12.21-20.11,18.52-30.04.7-1.11,2.75-1.93,4.17-1.93,31.32-.11,62.64-.01,93.97-.12,11.79-.04,23.64.12,35.36-.93,8.09-.73,16.29-2.6,23.9-5.42,7.46-2.77,14.75-6.66,21.17-11.36,9.5-6.94,17.1-15.85,21.68-26.99,1.37-3.34,3.39-6.42,4.83-9.74,1.01-2.34,1.54-4.89,2.47-7.95h-69.6c2.87-5.44,5.35-10.3,7.99-15.08,3.19-5.78,6.43-11.54,9.84-17.2.62-1.02,2.15-2.13,3.26-2.13,32.34-.11,64.68-.08,97.02-.06.25,0,.5.09,1.09.2-3.28,9.3-6.54,18.54-9.8,27.79-4.33,12.28-7.99,24.83-13.14,36.76-6.33,14.66-16.11,27.18-28.09,37.78-8.53,7.54-18.26,13.19-28.54,18.25-9.47,4.67-19.5,6.51-29.5,8.84-2.55.59-5.23.7-7.86.84-5.93.32-11.87.75-17.8.76-46.98.06-93.97.03-140.95.03C0,213.71,0,212.94,0,212.18ZM207.06,0c-7.5,2.29-15.02,4.52-22.49,6.88-9.55,3.02-17.38,9.11-24.11,15.98-10.25,10.47-16.46,23.97-24.2,36.28-8.34,13.27-16,26.96-23.95,40.47-3.47,5.89-6.93,11.78-10.48,17.8,2.71,0,5.24.05,7.78,0,7.71-.19,15.42-.76,23.11-.52,6.01.19,10.37-.34,13.21-7.01,3.08-7.23,8.06-13.64,12.18-20.43,7.21-11.88,14.33-23.82,21.64-35.65,1.7-2.75,3.5-5.87,6.09-7.52,4.68-2.98,9.94-5.07,15.05-7.34,2.25-1,4.68-2.06,7.07-2.2,8.6-.49,17.23-.78,25.85-.83,18.58-.11,37.16.01,55.73-.15,1.09,0,2.71-1.46,3.16-2.6,2.42-6.24,4.51-12.61,6.79-18.91C301.23,9.48,303.07,4.75,304.85,0c-32.6,0-65.2,0-97.8,0ZM118.43,0c-2.42.31-4.88.44-7.24.98-12.87,2.95-25.32,6.83-37.02,13.34-11.08,6.17-20.56,14-29.39,22.93-10.07,10.18-17.6,22.05-23.41,34.96-5.56,12.36-8.9,25.45-9.02,39.04-.09,9.43.37,18.94,1.59,28.28.98,7.53,3.45,14.87,5.2,22.09h39.95c-1.7-4.08-3.49-7.77-4.79-11.61-4.39-12.99-7.02-26.18-5.5-40.07.97-8.88,2.68-17.44,6.34-25.61,4.29-9.58,9.73-18.42,17.51-25.53,4.96-4.54,9.88-9.52,15.71-12.66,14.28-7.71,29.87-11.18,46.14-10.96,3.26.04,5.02-1.23,6.56-3.92,4.81-8.41,9.9-16.66,14.73-25.05,1.09-1.89,1.59-4.13,2.37-6.21-13.24,0-26.49,0-39.73,0Z"/>
  </g>
</svg>